# xmcd
#
# Track frame offsets:
# 150
# 19340
# 39131
# 56084
# 72421
# 90204
# 102610
# 120577
# 150746
# 169421
# 182673
# 202359
# 217284
# 236496
# 252157
# 271114
# 289130
# 298971
#
# Disc length: 4206 seconds
#
#
# Revision: 0
# Processed by: cddbd v1.5.2PL0 Copyright (c) Steve Scherf et al.
# Submitted via: FreeRIP 2.945 
#
DISCID=18106c12
DTITLE=Ze Henrique e Gabriel - Aucustico Ao VIVO
DYEAR=2006
DGENRE=Country
TTITLE0=Um Louco
TTITLE1=O Brasil Ta Cheio de Mulher
TTITLE2=Qunado Digo Que Ti Amo
TTITLE3=Tremele
TTITLE4=Instinto Animal
TTITLE5=Pinga na Cabeça
TTITLE6=Calma Respira
TTITLE7=Pout porri - Hoje eu sei - de igual para igual - seu amor ainda e tudo
TTITLE8=Dona Do meu Coração
TTITLE9=Mala Amarela
TTITLE10=Arrasou
TTITLE11=Proposta
TTITLE12=Inevitavel
TTITLE13=To Mal
TTITLE14=Comitiva Esperanaça
TTITLE15=Pout porri - caminhoneiro - poeira da estrada - porta do mundo
TTITLE16=Tema de Viola
TTITLE17=Pout porri - navalha na carne - pagode do ala - chega de sujeira - pagode em brasilia
EXTD=
EXTT0=
EXTT1=
EXTT2=
EXTT3=
EXTT4=
EXTT5=
EXTT6=
EXTT7=
EXTT8=
EXTT9=
EXTT10=
EXTT11=
EXTT12=
EXTT13=
EXTT14=
EXTT15=
EXTT16=
EXTT17=
PLAYORDER=
